<svg xmlns="http://www.w3.org/2000/svg" version="1.1" xmlns:xlink="http://www.w3.org/1999/xlink" xmlns:svgjs="http://svgjs.com/svgjs" width="77.000000pt" height="48.000000pt"><svg version="1.0" xmlns="http://www.w3.org/2000/svg" width="77.000000pt" height="48.000000pt" viewBox="0 0 77.000000 48.000000" preserveAspectRatio="xMidYMid meet">

<g transform="translate(0.000000,48.000000) scale(0.100000,-0.100000)" fill="#000000" stroke="none">
<path d="M23 453 c28 -7 37 -45 37 -153 0 -108 -9 -146 -37 -153 -10 -3 9 -5
42 -5 33 0 51 3 40 5 -11 3 -23 10 -27 17 -11 16 -10 242 1 231 5 -6 32 -63
61 -127 29 -65 56 -118 60 -118 4 0 31 53 60 118 29 64 56 121 61 126 11 12
12 -214 1 -230 -4 -7 -16 -14 -27 -17 -11 -2 12 -5 50 -5 51 -1 64 2 48 8 -22
9 -23 13 -23 150 0 136 1 141 23 150 18 8 13 9 -23 7 l-44 -2 -55 -122 c-30
-68 -58 -120 -61 -115 -4 4 -31 60 -60 125 l-54 117 -45 -1 c-25 -1 -38 -3
-28 -6z"></path>
<path d="M458 450 c21 -9 22 -14 22 -150 0 -137 -1 -141 -22 -150 -16 -6 5 -9
72 -9 113 -1 168 19 200 71 27 44 27 131 0 175 -34 57 -62 68 -184 70 -79 2
-104 0 -88 -7z m182 -25 c71 -36 86 -157 29 -228 -25 -33 -87 -51 -123 -37
l-26 10 0 128 c0 71 3 132 7 135 12 13 84 7 113 -8z"></path>
</g>
</svg><style>@media (prefers-color-scheme: light) { :root { filter: none; } }
@media (prefers-color-scheme: dark) { :root { filter: invert(100%); } }
</style></svg>